# xmcd
#
# Track frame offsets:
#	150
#	24388
#	47677
#	64006
#	84448
#	102673
#	125198
#	146192
#	167813
#	181348
#	196208
#	235054
#	255704
#
# Disc length: 3611 seconds
#
# Revision: 1
# Processed by: cddbd v1.5.2PL0 Copyright (c) Steve Scherf et al.
# Submitted via: audiograbber 1.83.01
#
DISCID=b80e190d
DTITLE=Crimino - State Street Smoothie
DYEAR=2010
DGENRE=Blues
TTITLE0=Ain't no sunshine
TTITLE1=Comin' home
TTITLE2=Crimino
TTITLE3=Every drop pf rain
TTITLE4=Soñé con un ángel
TTITLE5=A hero never wins
TTITLE6=Un nuevo día
TTITLE7=Hard time
TTITLE8=Forever I do
TTITLE9=Too hot to handle
TTITLE10=Too rolling stoned (live)
TTITLE11=Superstition
TTITLE12=Train to freedom
EXTD=
EXTT0=
EXTT1=
EXTT2=
EXTT3=
EXTT4=
EXTT5=
EXTT6=
EXTT7=
EXTT8=
EXTT9=
EXTT10=
EXTT11=
EXTT12=
PLAYORDER=
